<svg width="18" height="18" viewBox="0 0 18 18" fill="none" xmlns="http://www.w3.org/2000/svg">
<path d="M17.4207 8.97056C17.4204 8.82775 17.3793 8.68801 17.3022 8.56775C17.2252 8.4475 17.1154 8.35174 16.9858 8.29174L1.07592 0.867119C0.937138 0.804664 0.782635 0.785909 0.632938 0.813346C0.48324 0.840783 0.345431 0.913112 0.237816 1.02073C0.1302 1.12834 0.0578709 1.26615 0.0304342 1.41585C0.00299748 1.56555 0.0217516 1.72005 0.0842066 1.85884L2.82071 8.2334L9.5559 8.2228L9.5559 9.71833L2.7995 9.71833L0.0682971 16.0982C0.00892012 16.2362 -0.00765833 16.3888 0.0207083 16.5363C0.0490749 16.6838 0.12108 16.8194 0.227396 16.9255C0.336766 17.0305 0.475378 17.0999 0.624962 17.1245C0.774546 17.1491 0.928077 17.1278 1.06532 17.0634L16.9752 9.63878C17.1052 9.58108 17.2161 9.48763 17.2949 9.36932C17.3738 9.25101 17.4174 9.11272 17.4207 8.97056Z" fill="black"/>
</svg>
