<svg width="44" height="44" viewBox="0 0 44 44" fill="none" xmlns="http://www.w3.org/2000/svg">
<path d="M11.401 3.95638C10.9707 4.13883 10.5797 4.40279 10.2496 4.73371C9.90612 5.07377 9.6336 5.4787 9.44791 5.92498C9.26222 6.37127 9.16706 6.85 9.16797 7.33337L9.16797 29.3334C9.16797 29.8779 9.40998 30.393 9.82614 30.7432L20.8261 39.9099C21.5063 40.4764 22.4945 40.4764 23.1746 39.9099L34.1746 30.7432C34.5926 30.393 34.8346 29.8779 34.8346 29.3334L34.8346 7.33337C34.8368 6.8533 34.7437 6.37758 34.5605 5.93382C34.3773 5.49006 34.1078 5.08712 33.7676 4.74837C33.4276 4.40485 33.0226 4.13233 32.5764 3.94664C32.1301 3.76095 31.6513 3.66579 31.168 3.66671L12.8346 3.66671C12.347 3.66671 11.8721 3.76204 11.401 3.95638Z" fill="#FAFF00"/>
<path d="M28.6226 19.2363C28.4066 18.7362 28.0951 18.2831 27.7057 17.9022C27.316 17.5201 26.8565 17.2165 26.3522 17.0079C25.8293 16.7906 25.2684 16.6795 24.7022 16.6808C23.9078 16.6808 23.1328 16.8983 22.4592 17.3092C22.2981 17.4075 22.145 17.5154 22 17.6331C21.855 17.5154 21.7019 17.4075 21.5408 17.3092C20.8672 16.8983 20.0922 16.6808 19.2978 16.6808C18.7258 16.6808 18.1715 16.7903 17.6478 17.0079C17.1418 17.2173 16.6858 17.5187 16.2943 17.9022C15.9043 18.2826 15.5928 18.7359 15.3774 19.2363C15.1535 19.7568 15.0391 20.3095 15.0391 20.8783C15.0391 21.4148 15.1486 21.974 15.3662 22.5428C15.5482 23.0181 15.8093 23.5112 16.1428 24.0091C16.6713 24.797 17.398 25.6188 18.3004 26.4519C19.7957 27.8328 21.2765 28.7867 21.3394 28.8253L21.7212 29.0703C21.8904 29.1782 22.108 29.1782 22.2771 29.0703L22.659 28.8253C22.7219 28.7851 24.2011 27.8328 25.698 26.4519C26.6003 25.6188 27.3271 24.797 27.8556 24.0091C28.1891 23.5112 28.4518 23.0181 28.6322 22.5428C28.8498 21.974 28.9593 21.4148 28.9593 20.8783C28.9609 20.3095 28.8465 19.7568 28.6226 19.2363Z" fill="#B00A0A"/>
</svg>
